Plot
Genre : Drama

Plot : The movie is based on Ntozake Shange's play "For Colored Girls Who Have Considered Suicide When the Rainbow Is Enuf." Unlike the original play which featured only 7 women known by colors performing the collection of 20 poems, the movie has given each of the 20 characters names. Each of the poems deal with intense issues that particularly impact women in a thought-provoking commentary on what it means to be a female of color in the world.

Infomation
Video
ID : 0
Format : MPEG-4 Visual
Format profile : Simple@L3
Format settings, BVOP : No
Format settings, QPel : No
Format settings, GMC : No warppoints
Format settings, Matrix : Default (H.263)
Codec ID : XVID
Codec ID/Hint : XviD
Duration : 2h 7mn
Bit rate : 840 Kbps
Width : 696 pixels
Height : 388 pixels
Display aspect ratio : 16:9
Frame rate : 23.976 fps
Color space : YUV
Chroma subsampling : 4:2:0
Bit depth : 8 bits
Scan type : Progressive
Bits/(Pixel*Frame) : 0.099
Stream size : 582 MiB (83%)
Writing library : XviD 1.2.1 (UTC 2008-12-04)

Audio
ID : 1
Format : MPEG Audio
Format version : Version 1
Format profile : Layer 3
Mode : Joint stereo
Mode extension : MS Stereo
Codec ID : 55
Codec ID/Hint : MP3
Duration : 2h 7mn
Bit rate mode : Constant
Bit rate : 128 Kbps
Channel(s) : 2 channels
Sampling rate : 48.0 KHz
Stream size : 116 MiB (17%)
Alignment : Split accross interleaves
Interleave, duration : 500 ms (11.99 video frames)
Interleave, preload duration : 500 ms

notes:
Our previous release was missing the ending this one fixes that
enjoy
 
http://www.imdb.com/title/tt1405500/

 
http://www.youtube.com/watch?v=sDWU_cFU9ZA